# xmcd
#
# Track frame offsets:
#	182
#	18035
#	33235
#	45565
#	57117
#	68147
#	84022
#	101777
#	115107
#	127680
#	140672
#	152175
#
# Disc length: 2232 seconds
#
# Revision: 0
# Processed by: cddbd v1.5PL3 Copyright (c) Steve Scherf et al.
# Submitted via: audiograbber 1.80
#
DISCID=8c08b60c
DTITLE=Francisco Petrônio/Sílvio Caldas - Juntos
DYEAR=1900
DGENRE=
TTITLE0=Ave Maria dos Namorados
TTITLE1=Solamente una Vez
TTITLE2=Baile da Saudade
TTITLE3=Fascinação
TTITLE4=Aos Pés da  Cruz
TTITLE5=O Amor Mais Puro
TTITLE6=Deusa da Minha Rua
TTITLE7=Serenata
TTITLE8=Velho Realejo
TTITLE9=Largo dfa Lapa
TTITLE10=Longe dos Olhos
TTITLE11=Tristeza do Jeca
EXTD=
EXTT0=
EXTT1=
EXTT2=
EXTT3=
EXTT4=
EXTT5=
EXTT6=
EXTT7=
EXTT8=
EXTT9=
EXTT10=
EXTT11=
PLAYORDER=
